<svg width="66" height="50" viewBox="0 0 66 50" fill="none" xmlns="http://www.w3.org/2000/svg">
<g opacity="0.8">
<path d="M49.3312 17.1126C58.4128 17.1126 65.7749 24.4747 65.7749 33.5563C65.7749 42.6379 58.4128 50 49.3312 50C49.1952 50 17.0137 49.995 16.8784 49.9917C22.7663 49.9917 32.8876 44.4102 32.8876 33.5563C32.8876 24.4747 40.2497 17.1126 49.3312 17.1126Z" fill="#FF97F5"/>
<path d="M16.4437 50C7.36207 50 -8.09686e-06 42.6379 -9.28776e-06 33.5563C-1.04787e-05 24.4748 7.36207 17.1127 16.4437 17.1127C16.5797 17.1127 48.7612 17.1176 48.8965 17.1209C43.0086 17.1209 32.8873 22.3769 32.8873 33.5563C32.8873 42.6379 25.5253 50 16.4437 50Z" fill="#00B0F0"/>
<path fill-rule="evenodd" clip-rule="evenodd" d="M-7.18776e-07 33.5562C4.72131e-07 42.6378 7.36208 49.9999 16.4437 49.9999C16.6168 49.9999 16.7894 49.9972 16.9613 49.9919C18.7644 49.9952 49.1988 49.9999 49.3311 49.9999C58.4127 49.9999 65.7748 42.6378 65.7748 33.5562L49.3311 33.5562L32.8874 33.5562C32.8874 34.9383 32.7233 36.2349 32.4247 37.4454C32.7271 36.1985 32.8873 34.8961 32.8873 33.5562L25.778 33.5562L16.3076 33.5562L-7.18776e-07 33.5562ZM18.1446 49.913C17.7639 49.9521 17.3793 49.9782 16.9912 49.9909C17.3608 49.9865 17.7464 49.9605 18.1446 49.913Z" fill="#FF00E5" style="mix-blend-mode:darken"/>
</g>
<circle cx="32.9104" cy="16.7713" r="16.7713" fill="#76F2FF" style="mix-blend-mode:multiply"/>
</svg>
